<svg xmlns="http://www.w3.org/2000/svg" viewBox="0 0 64 64" role="img" aria-labelledby="title">
  <title id="title">自由女神</title>
  <g fill="none" stroke="currentColor" stroke-width="3" stroke-linecap="round" stroke-linejoin="round">
    <path d="M32 23v27"/>
    <path d="M24 56h16"/>
    <path d="M27 50h10"/>
    <path d="M26 23h12l-2 8H28l-2-8Z" fill="#38BDF8" stroke="#0B3D91"/>
    <path d="M24 20l-5-6"/>
    <path d="M28 18l-1-8"/>
    <path d="M32 17V7"/>
    <path d="M36 18l1-8"/>
    <path d="M40 20l5-6"/>
    <path d="M39 32l8 4 3-6"/>
    <path d="M25 32l-8 4-3-6"/>
    <path d="M47 12l2-5 2 5 5 2-5 2-2 5-2-5-5-2 5-2Z" fill="#FBBF24" stroke="#D62828"/>
  </g>
</svg>
